<mxfile host="Electron" agent="Mozilla/5.0 (Windows NT 10.0; Win64; x64) AppleWebKit/537.36 (KHTML, like Gecko) draw.io/21.7.5 Chrome/114.0.5735.289 Electron/25.8.1 Safari/537.36" modified="2024-11-20T12:06:11.586Z" version="21.7.5" etag="dsLwqgeiutjRuB7r8uSU" type="device">
  <diagram name="Страница — 1" id="TqZXy8hM3A-S-PktNE0j">
    <mxGraphModel dx="2501" dy="2005" grid="1" gridSize="10" guides="1" tooltips="1" connect="1" arrows="1" fold="1" page="1" pageScale="1" pageWidth="827" pageHeight="1169" math="0" shadow="0">
      <root>
        <mxCell id="0" />
        <mxCell id="1" parent="0" />
        <mxCell id="QMI02s3Y9x0r5266T1xY-1" value="Linia" style="rounded=0;whiteSpace=wrap;html=1;" parent="1" vertex="1">
          <mxGeometry x="20" y="230" width="120" height="60" as="geometry" />
        </mxCell>
        <mxCell id="QMI02s3Y9x0r5266T1xY-3" value="Estacion" style="rounded=0;whiteSpace=wrap;html=1;" parent="1" vertex="1">
          <mxGeometry x="420" y="230" width="120" height="60" as="geometry" />
        </mxCell>
        <mxCell id="QMI02s3Y9x0r5266T1xY-4" value="" style="endArrow=none;html=1;rounded=0;exitX=1;exitY=0.5;exitDx=0;exitDy=0;entryX=0;entryY=0.5;entryDx=0;entryDy=0;" parent="1" source="QMI02s3Y9x0r5266T1xY-2" target="QMI02s3Y9x0r5266T1xY-3" edge="1">
          <mxGeometry width="50" height="50" relative="1" as="geometry">
            <mxPoint x="390" y="310" as="sourcePoint" />
            <mxPoint x="440" y="260" as="targetPoint" />
          </mxGeometry>
        </mxCell>
        <mxCell id="QMI02s3Y9x0r5266T1xY-5" value="" style="endArrow=none;html=1;rounded=0;exitX=1;exitY=0.5;exitDx=0;exitDy=0;entryX=0;entryY=0.5;entryDx=0;entryDy=0;" parent="1" source="QMI02s3Y9x0r5266T1xY-1" target="QMI02s3Y9x0r5266T1xY-2" edge="1">
          <mxGeometry width="50" height="50" relative="1" as="geometry">
            <mxPoint x="140" y="260" as="sourcePoint" />
            <mxPoint x="420" y="260" as="targetPoint" />
          </mxGeometry>
        </mxCell>
        <mxCell id="QMI02s3Y9x0r5266T1xY-2" value="compuesta" style="rhombus;whiteSpace=wrap;html=1;" parent="1" vertex="1">
          <mxGeometry x="240" y="220" width="80" height="80" as="geometry" />
        </mxCell>
        <mxCell id="QMI02s3Y9x0r5266T1xY-6" value="(1,n)" style="text;html=1;align=center;verticalAlign=middle;whiteSpace=wrap;rounded=0;" parent="1" vertex="1">
          <mxGeometry x="130" y="230" width="60" height="30" as="geometry" />
        </mxCell>
        <mxCell id="QMI02s3Y9x0r5266T1xY-7" value="(1,n)" style="text;html=1;align=center;verticalAlign=middle;whiteSpace=wrap;rounded=0;" parent="1" vertex="1">
          <mxGeometry x="370" y="230" width="60" height="30" as="geometry" />
        </mxCell>
        <mxCell id="QMI02s3Y9x0r5266T1xY-9" value="Acesso" style="rounded=0;whiteSpace=wrap;html=1;" parent="1" vertex="1">
          <mxGeometry x="420" y="480" width="120" height="60" as="geometry" />
        </mxCell>
        <mxCell id="QMI02s3Y9x0r5266T1xY-10" value="" style="endArrow=none;html=1;rounded=0;entryX=0.5;entryY=1;entryDx=0;entryDy=0;exitX=0.5;exitY=0;exitDx=0;exitDy=0;" parent="1" source="QMI02s3Y9x0r5266T1xY-8" target="QMI02s3Y9x0r5266T1xY-3" edge="1">
          <mxGeometry width="50" height="50" relative="1" as="geometry">
            <mxPoint x="390" y="360" as="sourcePoint" />
            <mxPoint x="440" y="310" as="targetPoint" />
          </mxGeometry>
        </mxCell>
        <mxCell id="QMI02s3Y9x0r5266T1xY-11" value="" style="endArrow=none;html=1;rounded=0;entryX=0.5;entryY=1;entryDx=0;entryDy=0;exitX=0.5;exitY=0;exitDx=0;exitDy=0;" parent="1" source="QMI02s3Y9x0r5266T1xY-9" target="QMI02s3Y9x0r5266T1xY-8" edge="1">
          <mxGeometry width="50" height="50" relative="1" as="geometry">
            <mxPoint x="480" y="480" as="sourcePoint" />
            <mxPoint x="480" y="290" as="targetPoint" />
          </mxGeometry>
        </mxCell>
        <mxCell id="QMI02s3Y9x0r5266T1xY-8" value="tiene" style="rhombus;whiteSpace=wrap;html=1;" parent="1" vertex="1">
          <mxGeometry x="440" y="350" width="80" height="80" as="geometry" />
        </mxCell>
        <mxCell id="QMI02s3Y9x0r5266T1xY-12" value="(1,1)" style="text;html=1;align=center;verticalAlign=middle;whiteSpace=wrap;rounded=0;" parent="1" vertex="1">
          <mxGeometry x="470" y="290" width="60" height="30" as="geometry" />
        </mxCell>
        <mxCell id="QMI02s3Y9x0r5266T1xY-13" value="(1,n)" style="text;html=1;align=center;verticalAlign=middle;whiteSpace=wrap;rounded=0;" parent="1" vertex="1">
          <mxGeometry x="470" y="450" width="60" height="30" as="geometry" />
        </mxCell>
        <mxCell id="QMI02s3Y9x0r5266T1xY-15" value="Tren" style="rounded=0;whiteSpace=wrap;html=1;" parent="1" vertex="1">
          <mxGeometry x="20" y="-10" width="120" height="60" as="geometry" />
        </mxCell>
        <mxCell id="QMI02s3Y9x0r5266T1xY-16" value="" style="endArrow=none;html=1;rounded=0;entryX=0.5;entryY=1;entryDx=0;entryDy=0;exitX=0.5;exitY=0;exitDx=0;exitDy=0;" parent="1" source="QMI02s3Y9x0r5266T1xY-14" target="QMI02s3Y9x0r5266T1xY-15" edge="1">
          <mxGeometry width="50" height="50" relative="1" as="geometry">
            <mxPoint x="390" y="220" as="sourcePoint" />
            <mxPoint x="440" y="170" as="targetPoint" />
          </mxGeometry>
        </mxCell>
        <mxCell id="QMI02s3Y9x0r5266T1xY-17" value="" style="endArrow=none;html=1;rounded=0;entryX=0.5;entryY=1;entryDx=0;entryDy=0;exitX=0.5;exitY=0;exitDx=0;exitDy=0;" parent="1" source="QMI02s3Y9x0r5266T1xY-1" target="QMI02s3Y9x0r5266T1xY-14" edge="1">
          <mxGeometry width="50" height="50" relative="1" as="geometry">
            <mxPoint x="80" y="230" as="sourcePoint" />
            <mxPoint x="80" y="50" as="targetPoint" />
          </mxGeometry>
        </mxCell>
        <mxCell id="QMI02s3Y9x0r5266T1xY-14" value="pertenece" style="rhombus;whiteSpace=wrap;html=1;" parent="1" vertex="1">
          <mxGeometry x="40" y="100" width="80" height="80" as="geometry" />
        </mxCell>
        <mxCell id="QMI02s3Y9x0r5266T1xY-18" value="(0,n)" style="text;html=1;align=center;verticalAlign=middle;whiteSpace=wrap;rounded=0;" parent="1" vertex="1">
          <mxGeometry x="70" y="50" width="60" height="30" as="geometry" />
        </mxCell>
        <mxCell id="QMI02s3Y9x0r5266T1xY-19" value="(0,1)" style="text;html=1;align=center;verticalAlign=middle;whiteSpace=wrap;rounded=0;" parent="1" vertex="1">
          <mxGeometry x="70" y="200" width="60" height="30" as="geometry" />
        </mxCell>
        <mxCell id="QMI02s3Y9x0r5266T1xY-20" value="Cochera" style="rounded=0;whiteSpace=wrap;html=1;" parent="1" vertex="1">
          <mxGeometry x="420" y="-10" width="120" height="60" as="geometry" />
        </mxCell>
        <mxCell id="QMI02s3Y9x0r5266T1xY-21" value="asignado" style="rhombus;whiteSpace=wrap;html=1;" parent="1" vertex="1">
          <mxGeometry x="240" y="70" width="80" height="80" as="geometry" />
        </mxCell>
        <mxCell id="QMI02s3Y9x0r5266T1xY-22" value="" style="endArrow=none;html=1;rounded=0;exitX=1;exitY=1;exitDx=0;exitDy=0;entryX=0;entryY=0;entryDx=0;entryDy=0;" parent="1" source="QMI02s3Y9x0r5266T1xY-15" target="QMI02s3Y9x0r5266T1xY-21" edge="1">
          <mxGeometry width="50" height="50" relative="1" as="geometry">
            <mxPoint x="390" y="220" as="sourcePoint" />
            <mxPoint x="440" y="170" as="targetPoint" />
          </mxGeometry>
        </mxCell>
        <mxCell id="QMI02s3Y9x0r5266T1xY-23" value="" style="endArrow=none;html=1;rounded=0;exitX=0.867;exitY=0.133;exitDx=0;exitDy=0;exitPerimeter=0;entryX=1;entryY=1;entryDx=0;entryDy=0;" parent="1" source="QMI02s3Y9x0r5266T1xY-7" target="QMI02s3Y9x0r5266T1xY-21" edge="1">
          <mxGeometry width="50" height="50" relative="1" as="geometry">
            <mxPoint x="390" y="220" as="sourcePoint" />
            <mxPoint x="440" y="170" as="targetPoint" />
          </mxGeometry>
        </mxCell>
        <mxCell id="QMI02s3Y9x0r5266T1xY-24" value="" style="endArrow=none;html=1;rounded=0;entryX=0;entryY=1;entryDx=0;entryDy=0;exitX=1;exitY=0;exitDx=0;exitDy=0;" parent="1" source="QMI02s3Y9x0r5266T1xY-21" target="QMI02s3Y9x0r5266T1xY-20" edge="1">
          <mxGeometry width="50" height="50" relative="1" as="geometry">
            <mxPoint x="390" y="220" as="sourcePoint" />
            <mxPoint x="440" y="170" as="targetPoint" />
          </mxGeometry>
        </mxCell>
        <mxCell id="QMI02s3Y9x0r5266T1xY-26" value="(0,n)" style="text;html=1;align=center;verticalAlign=middle;resizable=0;points=[];autosize=1;strokeColor=none;fillColor=none;" parent="1" vertex="1">
          <mxGeometry x="135" y="20" width="50" height="30" as="geometry" />
        </mxCell>
        <mxCell id="QMI02s3Y9x0r5266T1xY-27" value="(1,1)" style="text;html=1;align=center;verticalAlign=middle;resizable=0;points=[];autosize=1;strokeColor=none;fillColor=none;" parent="1" vertex="1">
          <mxGeometry x="370" y="20" width="50" height="30" as="geometry" />
        </mxCell>
        <mxCell id="QMI02s3Y9x0r5266T1xY-28" value="(1,1)" style="text;html=1;align=center;verticalAlign=middle;resizable=0;points=[];autosize=1;strokeColor=none;fillColor=none;rotation=0;" parent="1" vertex="1">
          <mxGeometry x="414" y="200" width="50" height="30" as="geometry" />
        </mxCell>
        <mxCell id="QMI02s3Y9x0r5266T1xY-35" value="#codigo_Linia" style="ellipse;whiteSpace=wrap;html=1;" parent="1" vertex="1">
          <mxGeometry x="-110" y="275" width="100" height="60" as="geometry" />
        </mxCell>
        <mxCell id="QMI02s3Y9x0r5266T1xY-36" value="description" style="ellipse;whiteSpace=wrap;html=1;" parent="1" vertex="1">
          <mxGeometry x="-110" y="200" width="100" height="60" as="geometry" />
        </mxCell>
        <mxCell id="QMI02s3Y9x0r5266T1xY-37" value="" style="endArrow=none;html=1;rounded=0;exitX=0;exitY=0.75;exitDx=0;exitDy=0;entryX=1;entryY=0;entryDx=0;entryDy=0;" parent="1" source="QMI02s3Y9x0r5266T1xY-1" target="QMI02s3Y9x0r5266T1xY-35" edge="1">
          <mxGeometry width="50" height="50" relative="1" as="geometry">
            <mxPoint x="390" y="250" as="sourcePoint" />
            <mxPoint x="440" y="200" as="targetPoint" />
          </mxGeometry>
        </mxCell>
        <mxCell id="QMI02s3Y9x0r5266T1xY-38" value="" style="endArrow=none;html=1;rounded=0;exitX=0;exitY=0.25;exitDx=0;exitDy=0;entryX=1;entryY=0.5;entryDx=0;entryDy=0;" parent="1" source="QMI02s3Y9x0r5266T1xY-1" target="QMI02s3Y9x0r5266T1xY-36" edge="1">
          <mxGeometry width="50" height="50" relative="1" as="geometry">
            <mxPoint x="390" y="250" as="sourcePoint" />
            <mxPoint x="440" y="200" as="targetPoint" />
          </mxGeometry>
        </mxCell>
        <mxCell id="QMI02s3Y9x0r5266T1xY-39" value="orden" style="ellipse;whiteSpace=wrap;html=1;aspect=fixed;" parent="1" vertex="1">
          <mxGeometry x="190" y="290" width="60" height="60" as="geometry" />
        </mxCell>
        <mxCell id="QMI02s3Y9x0r5266T1xY-40" value="" style="endArrow=none;html=1;rounded=0;exitX=0;exitY=1;exitDx=0;exitDy=0;entryX=1;entryY=0;entryDx=0;entryDy=0;" parent="1" source="QMI02s3Y9x0r5266T1xY-2" target="QMI02s3Y9x0r5266T1xY-39" edge="1">
          <mxGeometry width="50" height="50" relative="1" as="geometry">
            <mxPoint x="260" y="281" as="sourcePoint" />
            <mxPoint x="215" y="290" as="targetPoint" />
          </mxGeometry>
        </mxCell>
        <mxCell id="QMI02s3Y9x0r5266T1xY-41" value="#codigo_Estacion" style="ellipse;whiteSpace=wrap;html=1;" parent="1" vertex="1">
          <mxGeometry x="570" y="160" width="100" height="60" as="geometry" />
        </mxCell>
        <mxCell id="QMI02s3Y9x0r5266T1xY-42" value="direccion" style="ellipse;whiteSpace=wrap;html=1;" parent="1" vertex="1">
          <mxGeometry x="570" y="230" width="100" height="60" as="geometry" />
        </mxCell>
        <mxCell id="QMI02s3Y9x0r5266T1xY-43" value="codigoPostal" style="ellipse;whiteSpace=wrap;html=1;" parent="1" vertex="1">
          <mxGeometry x="570" y="300" width="100" height="60" as="geometry" />
        </mxCell>
        <mxCell id="QMI02s3Y9x0r5266T1xY-44" value="" style="endArrow=none;html=1;rounded=0;exitX=1;exitY=0;exitDx=0;exitDy=0;entryX=0;entryY=1;entryDx=0;entryDy=0;" parent="1" source="QMI02s3Y9x0r5266T1xY-3" target="QMI02s3Y9x0r5266T1xY-41" edge="1">
          <mxGeometry width="50" height="50" relative="1" as="geometry">
            <mxPoint x="390" y="270" as="sourcePoint" />
            <mxPoint x="440" y="220" as="targetPoint" />
          </mxGeometry>
        </mxCell>
        <mxCell id="QMI02s3Y9x0r5266T1xY-45" value="" style="endArrow=none;html=1;rounded=0;exitX=1;exitY=1;exitDx=0;exitDy=0;entryX=0;entryY=0;entryDx=0;entryDy=0;" parent="1" source="QMI02s3Y9x0r5266T1xY-3" target="QMI02s3Y9x0r5266T1xY-43" edge="1">
          <mxGeometry width="50" height="50" relative="1" as="geometry">
            <mxPoint x="525" y="335" as="sourcePoint" />
            <mxPoint x="570" y="316" as="targetPoint" />
          </mxGeometry>
        </mxCell>
        <mxCell id="QMI02s3Y9x0r5266T1xY-46" value="" style="endArrow=none;html=1;rounded=0;exitX=1;exitY=0.5;exitDx=0;exitDy=0;entryX=0;entryY=0.5;entryDx=0;entryDy=0;" parent="1" source="QMI02s3Y9x0r5266T1xY-3" target="QMI02s3Y9x0r5266T1xY-42" edge="1">
          <mxGeometry width="50" height="50" relative="1" as="geometry">
            <mxPoint x="560" y="250" as="sourcePoint" />
            <mxPoint x="605" y="231" as="targetPoint" />
          </mxGeometry>
        </mxCell>
        <mxCell id="QMI02s3Y9x0r5266T1xY-47" value="#codigo_Acesso" style="ellipse;whiteSpace=wrap;html=1;" parent="1" vertex="1">
          <mxGeometry x="370" y="580" width="100" height="60" as="geometry" />
        </mxCell>
        <mxCell id="QMI02s3Y9x0r5266T1xY-48" value="direccion" style="ellipse;whiteSpace=wrap;html=1;" parent="1" vertex="1">
          <mxGeometry x="500" y="580" width="100" height="60" as="geometry" />
        </mxCell>
        <mxCell id="QMI02s3Y9x0r5266T1xY-49" value="" style="endArrow=none;html=1;rounded=0;entryX=0.25;entryY=1;entryDx=0;entryDy=0;exitX=0.5;exitY=0;exitDx=0;exitDy=0;" parent="1" source="QMI02s3Y9x0r5266T1xY-47" target="QMI02s3Y9x0r5266T1xY-9" edge="1">
          <mxGeometry width="50" height="50" relative="1" as="geometry">
            <mxPoint x="390" y="430" as="sourcePoint" />
            <mxPoint x="440" y="380" as="targetPoint" />
          </mxGeometry>
        </mxCell>
        <mxCell id="QMI02s3Y9x0r5266T1xY-50" value="" style="endArrow=none;html=1;rounded=0;exitX=0.5;exitY=0;exitDx=0;exitDy=0;entryX=0.75;entryY=1;entryDx=0;entryDy=0;" parent="1" source="QMI02s3Y9x0r5266T1xY-48" target="QMI02s3Y9x0r5266T1xY-9" edge="1">
          <mxGeometry width="50" height="50" relative="1" as="geometry">
            <mxPoint x="390" y="430" as="sourcePoint" />
            <mxPoint x="440" y="380" as="targetPoint" />
          </mxGeometry>
        </mxCell>
        <mxCell id="QMI02s3Y9x0r5266T1xY-51" value="fecha_de_entrada" style="ellipse;whiteSpace=wrap;html=1;" parent="1" vertex="1">
          <mxGeometry x="50" y="-170" width="100" height="60" as="geometry" />
        </mxCell>
        <mxCell id="QMI02s3Y9x0r5266T1xY-52" value="capacidad" style="ellipse;whiteSpace=wrap;html=1;" parent="1" vertex="1">
          <mxGeometry x="-90" y="-170" width="100" height="60" as="geometry" />
        </mxCell>
        <mxCell id="QMI02s3Y9x0r5266T1xY-53" value="#codigo_Tren" style="ellipse;whiteSpace=wrap;html=1;" parent="1" vertex="1">
          <mxGeometry x="-90" y="-90" width="100" height="60" as="geometry" />
        </mxCell>
        <mxCell id="QMI02s3Y9x0r5266T1xY-54" value="fecha_de_revision" style="ellipse;whiteSpace=wrap;html=1;" parent="1" vertex="1">
          <mxGeometry x="80" y="-90" width="100" height="60" as="geometry" />
        </mxCell>
        <mxCell id="QMI02s3Y9x0r5266T1xY-55" value="" style="endArrow=none;html=1;rounded=0;exitX=0;exitY=0;exitDx=0;exitDy=0;entryX=1;entryY=1;entryDx=0;entryDy=0;" parent="1" source="QMI02s3Y9x0r5266T1xY-15" target="QMI02s3Y9x0r5266T1xY-53" edge="1">
          <mxGeometry width="50" height="50" relative="1" as="geometry">
            <mxPoint x="390" y="-40" as="sourcePoint" />
            <mxPoint x="440" y="-90" as="targetPoint" />
          </mxGeometry>
        </mxCell>
        <mxCell id="QMI02s3Y9x0r5266T1xY-56" value="" style="endArrow=none;html=1;rounded=0;exitX=0.158;exitY=-0.033;exitDx=0;exitDy=0;entryX=1;entryY=1;entryDx=0;entryDy=0;exitPerimeter=0;" parent="1" source="QMI02s3Y9x0r5266T1xY-15" target="QMI02s3Y9x0r5266T1xY-52" edge="1">
          <mxGeometry width="50" height="50" relative="1" as="geometry">
            <mxPoint x="390" y="-40" as="sourcePoint" />
            <mxPoint x="440" y="-90" as="targetPoint" />
          </mxGeometry>
        </mxCell>
        <mxCell id="QMI02s3Y9x0r5266T1xY-57" value="" style="endArrow=none;html=1;rounded=0;exitX=0.25;exitY=0;exitDx=0;exitDy=0;entryX=0;entryY=1;entryDx=0;entryDy=0;" parent="1" source="QMI02s3Y9x0r5266T1xY-15" target="QMI02s3Y9x0r5266T1xY-51" edge="1">
          <mxGeometry width="50" height="50" relative="1" as="geometry">
            <mxPoint x="390" y="-40" as="sourcePoint" />
            <mxPoint x="440" y="-90" as="targetPoint" />
          </mxGeometry>
        </mxCell>
        <mxCell id="QMI02s3Y9x0r5266T1xY-58" value="" style="endArrow=none;html=1;rounded=0;exitX=0.5;exitY=0;exitDx=0;exitDy=0;entryX=0;entryY=1;entryDx=0;entryDy=0;" parent="1" source="QMI02s3Y9x0r5266T1xY-15" target="QMI02s3Y9x0r5266T1xY-54" edge="1">
          <mxGeometry width="50" height="50" relative="1" as="geometry">
            <mxPoint x="390" y="-40" as="sourcePoint" />
            <mxPoint x="440" y="-90" as="targetPoint" />
          </mxGeometry>
        </mxCell>
        <mxCell id="QMI02s3Y9x0r5266T1xY-59" value="#codigo_Cochera" style="ellipse;whiteSpace=wrap;html=1;" parent="1" vertex="1">
          <mxGeometry x="400" y="-90" width="100" height="60" as="geometry" />
        </mxCell>
        <mxCell id="QMI02s3Y9x0r5266T1xY-61" value="direccion" style="ellipse;whiteSpace=wrap;html=1;" parent="1" vertex="1">
          <mxGeometry x="550" y="-100" width="100" height="60" as="geometry" />
        </mxCell>
        <mxCell id="QMI02s3Y9x0r5266T1xY-64" value="codigoPostal" style="ellipse;whiteSpace=wrap;html=1;" parent="1" vertex="1">
          <mxGeometry x="570" y="5" width="100" height="60" as="geometry" />
        </mxCell>
        <mxCell id="QMI02s3Y9x0r5266T1xY-65" value="" style="endArrow=none;html=1;rounded=0;exitX=0.25;exitY=0;exitDx=0;exitDy=0;entryX=0.5;entryY=1;entryDx=0;entryDy=0;" parent="1" source="QMI02s3Y9x0r5266T1xY-20" target="QMI02s3Y9x0r5266T1xY-59" edge="1">
          <mxGeometry width="50" height="50" relative="1" as="geometry">
            <mxPoint x="360" y="50" as="sourcePoint" />
            <mxPoint x="410" as="targetPoint" />
          </mxGeometry>
        </mxCell>
        <mxCell id="QMI02s3Y9x0r5266T1xY-66" value="" style="endArrow=none;html=1;rounded=0;exitX=1;exitY=0;exitDx=0;exitDy=0;entryX=0;entryY=1;entryDx=0;entryDy=0;" parent="1" source="QMI02s3Y9x0r5266T1xY-20" target="QMI02s3Y9x0r5266T1xY-61" edge="1">
          <mxGeometry width="50" height="50" relative="1" as="geometry">
            <mxPoint x="360" y="50" as="sourcePoint" />
            <mxPoint x="410" as="targetPoint" />
          </mxGeometry>
        </mxCell>
        <mxCell id="QMI02s3Y9x0r5266T1xY-67" value="" style="endArrow=none;html=1;rounded=0;exitX=1;exitY=0.75;exitDx=0;exitDy=0;entryX=0;entryY=0.5;entryDx=0;entryDy=0;" parent="1" source="QMI02s3Y9x0r5266T1xY-20" target="QMI02s3Y9x0r5266T1xY-64" edge="1">
          <mxGeometry width="50" height="50" relative="1" as="geometry">
            <mxPoint x="360" y="50" as="sourcePoint" />
            <mxPoint x="410" as="targetPoint" />
          </mxGeometry>
        </mxCell>
      </root>
    </mxGraphModel>
  </diagram>
</mxfile>
